<svg width="24" height="24" viewBox="0 0 24 24" fill="none" xmlns="http://www.w3.org/2000/svg">
<g clip-path="url(#clip0_612_18328)">
<path d="M23.2969 11.2965H22.8702V11.2465C22.8702 9.49072 21.8835 8.08008 20.5979 7.35663C21.2975 6.74414 21.7407 5.84564 21.7407 4.84497C21.7407 3.00385 20.2427 1.50586 18.4016 1.50586C16.5604 1.50586 15.0624 3.00385 15.0624 4.84497C15.0624 5.84564 15.5056 6.74414 16.205 7.35663C14.9165 8.08136 13.9329 9.49548 13.9329 11.2465V11.2965H7.71149C7.06567 10.8235 6.27026 10.5434 5.41022 10.5434C3.25763 10.5434 1.50623 12.2946 1.50623 14.4474C1.50623 15.7154 2.11432 16.8439 3.05402 17.5574C1.24255 18.4854 0 20.3721 0 22.5434V23.2965C0 23.6849 0.314758 23.9996 0.703125 23.9996H10.4938C10.8821 23.9996 11.1969 23.6849 11.1969 23.2965V22.5434C11.1969 22.0036 11.1198 21.4814 10.9766 20.9872H22.5938V21.7903C22.5938 22.1785 22.9085 22.4934 23.2969 22.4934C23.6852 22.4934 24 22.1785 24 21.7903V11.9996C24 11.6113 23.6852 11.2965 23.2969 11.2965ZM16.4687 4.84497C16.4687 3.7793 17.3357 2.91211 18.4016 2.91211C19.4672 2.91211 20.3344 3.7793 20.3344 4.84497C20.3344 5.91064 19.4674 6.77783 18.4016 6.77783C17.3359 6.77783 16.4687 5.91064 16.4687 4.84497ZM15.3391 11.2465C15.3391 9.52844 16.7379 8.18408 18.4016 8.18408C20.0605 8.18408 21.464 9.5235 21.464 11.2465V11.2965H15.3391V11.2465ZM5.41022 11.9496C6.78735 11.9496 7.90778 13.0701 7.90778 14.4474C7.90778 15.8245 6.78735 16.9449 5.41022 16.9449C4.0329 16.9449 2.91248 15.8245 2.91248 14.4474C2.91248 13.0701 4.0329 11.9496 5.41022 11.9496ZM9.79065 22.5934H1.40625V22.5434C1.40625 20.2319 3.28693 18.3512 5.59845 18.3512C7.90997 18.3512 9.79065 20.2319 9.79065 22.5434V22.5934ZM7.90869 17.4441C8.76691 16.7274 9.31403 15.6502 9.31403 14.4474C9.31403 13.8204 9.16479 13.2283 8.90112 12.7028H22.5938V19.5809H10.3467C9.76392 18.6504 8.91577 17.9022 7.90869 17.4441Z" fill="#6C767F"/>
<path d="M2.586 9.31403H12.7531C13.3134 9.31403 13.6494 8.68781 13.3381 8.22089L11.95 6.13879V2.586C11.95 1.16858 10.8065 0 9.36402 0H2.586C1.15118 0 0 1.16144 0 2.586V6.72821C0 8.14948 1.14697 9.31403 2.586 9.31403ZM1.40625 2.586C1.40625 1.94238 1.92407 1.40625 2.586 1.40625H9.36402C10.0194 1.40625 10.5438 1.93359 10.5438 2.586V6.35156C10.5438 6.49036 10.5848 6.62604 10.6619 6.74158L11.4393 7.90778H2.586C1.93066 7.90778 1.40625 7.38043 1.40625 6.72803V2.586Z" fill="#6C767F"/>
<path d="M3.71558 4.04199H8.23444C8.62262 4.04199 8.93756 3.72705 8.93756 3.33887C8.93756 2.9505 8.62262 2.63574 8.23444 2.63574H3.71558C3.32739 2.63574 3.01245 2.9505 3.01245 3.33887C3.01245 3.72705 3.32721 4.04199 3.71558 4.04199Z" fill="#6C767F"/>
<path d="M3.71558 6.67773H5.9751C6.36328 6.67773 6.67822 6.36279 6.67822 5.97461C6.67822 5.58624 6.36328 5.27148 5.9751 5.27148H3.71558C3.32739 5.27148 3.01245 5.58624 3.01245 5.97461C3.01245 6.36279 3.32721 6.67773 3.71558 6.67773Z" fill="#6C767F"/>
</g>
<defs>
<clipPath id="clip0_612_18328">
<rect width="24" height="24" fill="white"/>
</clipPath>
</defs>
</svg>
