<svg width="28" height="28" viewBox="0 0 28 28" fill="none" xmlns="http://www.w3.org/2000/svg">
<g clip-path="url(#clip0_715_15998)">
<mask id="mask0_715_15998" style="mask-type:luminance" maskUnits="userSpaceOnUse" x="0" y="0" width="28" height="28">
<path d="M0 1.90735e-06H28V28H0V1.90735e-06Z" fill="white"/>
</mask>
<g mask="url(#mask0_715_15998)">
<path d="M6.28906 22.8047H4.10156C2.28938 22.8047 0.820312 24.2738 0.820312 26.0859V27.1797H9.57031V26.0859C9.57031 24.2738 8.10124 22.8047 6.28906 22.8047Z" stroke="#6C767F" stroke-width="1.5" stroke-miterlimit="10" stroke-linecap="round" stroke-linejoin="round"/>
<path d="M15.0937 6.28906H12.9062C11.0941 6.28906 9.625 7.75813 9.625 9.57031V10.6641H18.375V9.57031C18.375 7.75813 16.9059 6.28906 15.0937 6.28906Z" stroke="#6C767F" stroke-width="1.5" stroke-miterlimit="10" stroke-linecap="round" stroke-linejoin="round"/>
<path d="M23.8984 22.8047H21.7109C19.8988 22.8047 18.4297 24.2738 18.4297 26.0859V27.1797H27.1797V26.0859C27.1797 24.2738 25.7106 22.8047 23.8984 22.8047Z" stroke="#6C767F" stroke-width="1.5" stroke-miterlimit="10" stroke-linecap="round" stroke-linejoin="round"/>
<path d="M7.92969 20.0703C7.92969 21.5805 6.70545 22.8047 5.19531 22.8047C3.68517 22.8047 2.46094 21.5805 2.46094 20.0703C2.46094 18.5602 3.68517 17.3359 5.19531 17.3359C6.70545 17.3359 7.92969 18.5602 7.92969 20.0703Z" stroke="#6C767F" stroke-width="1.5" stroke-miterlimit="10" stroke-linecap="round" stroke-linejoin="round"/>
<path d="M16.7344 3.55469C16.7344 5.06483 15.5101 6.28906 14 6.28906C12.4899 6.28906 11.2656 5.06483 11.2656 3.55469C11.2656 2.04455 12.4899 0.820313 14 0.820313C15.5101 0.820313 16.7344 2.04455 16.7344 3.55469Z" stroke="#6C767F" stroke-width="1.5" stroke-miterlimit="10" stroke-linecap="round" stroke-linejoin="round"/>
<path d="M25.5391 20.0703C25.5391 21.5805 24.3148 22.8047 22.8047 22.8047C21.2945 22.8047 20.0703 21.5805 20.0703 20.0703C20.0703 18.5602 21.2945 17.3359 22.8047 17.3359C24.3148 17.3359 25.5391 18.5602 25.5391 20.0703Z" stroke="#6C767F" stroke-width="1.5" stroke-miterlimit="10" stroke-linecap="round" stroke-linejoin="round"/>
<path d="M14 15.6953V10.6641" stroke="#6C767F" stroke-width="1.5" stroke-miterlimit="10" stroke-linecap="round" stroke-linejoin="round"/>
<path d="M15.6406 17.3359C15.6406 18.242 14.9061 18.9766 14 18.9766C13.0939 18.9766 12.3594 18.242 12.3594 17.3359C12.3594 16.4299 13.0939 15.6953 14 15.6953C14.9061 15.6953 15.6406 16.4299 15.6406 17.3359Z" stroke="#6C767F" stroke-width="1.5" stroke-miterlimit="10" stroke-linecap="round" stroke-linejoin="round"/>
<path d="M12.4328 17.8223L7.80725 19.2588" stroke="#6C767F" stroke-width="1.5" stroke-miterlimit="10" stroke-linecap="round" stroke-linejoin="round"/>
<path d="M20.1927 19.2588L15.5671 17.8223" stroke="#6C767F" stroke-width="1.5" stroke-miterlimit="10" stroke-linecap="round" stroke-linejoin="round"/>
</g>
</g>
<defs>
<clipPath id="clip0_715_15998">
<rect width="28" height="28" fill="white"/>
</clipPath>
</defs>
</svg>
